<svg xmlns="http://www.w3.org/2000/svg" viewBox="0 0 354.97 354.97"><defs><style>.cls-1{fill:#321b5b;stroke-width:7px;}.cls-1,.cls-10,.cls-11,.cls-12,.cls-13,.cls-14,.cls-15,.cls-16,.cls-18,.cls-19,.cls-2,.cls-20,.cls-22,.cls-24,.cls-25,.cls-3,.cls-33,.cls-4,.cls-6,.cls-7,.cls-8,.cls-9{stroke:#1d1d1b;}.cls-1,.cls-10,.cls-11,.cls-12,.cls-13,.cls-14,.cls-15,.cls-16,.cls-17,.cls-18,.cls-19,.cls-2,.cls-20,.cls-21,.cls-22,.cls-24,.cls-25,.cls-26,.cls-27,.cls-28,.cls-29,.cls-3,.cls-30,.cls-31,.cls-32,.cls-33,.cls-4,.cls-5,.cls-6,.cls-7,.cls-8,.cls-9{stroke-miterlimit:10;}.cls-2,.cls-21,.cls-3,.cls-30,.cls-32,.cls-4{fill:none;}.cls-12,.cls-13,.cls-17,.cls-21,.cls-25,.cls-26,.cls-3,.cls-31,.cls-9{stroke-width:0.25px;}.cls-14,.cls-22,.cls-32,.cls-4,.cls-8{stroke-width:0.75px;}.cls-5{fill:#eac1c1;}.cls-17,.cls-21,.cls-26,.cls-5{stroke:#3c3c3b;}.cls-24,.cls-27,.cls-28,.cls-29,.cls-30,.cls-33,.cls-5{stroke-width:0.5px;}.cls-13,.cls-14,.cls-6{fill:#733646;}.cls-22,.cls-7{fill:#a6626f;}.cls-8{fill:#c18690;}.cls-10,.cls-9{fill:#785359;}.cls-11{fill:#bf7570;}.cls-12{fill:#595250;}.cls-15,.cls-24,.cls-25{fill:#d3cee8;}.cls-16{fill:#917c7e;}.cls-17{fill:#b8b1c4;opacity:0.67;}.cls-18{fill:#e2acac;}.cls-19{fill:#fdeff2;}.cls-20{fill:#1d1d1b;}.cls-23{fill:#fff;}.cls-26,.cls-29{fill:#d4b489;}.cls-27{fill:#a47e3e;}.cls-27,.cls-28,.cls-29,.cls-30{stroke:#000;}.cls-28{fill:#72572a;}.cls-31{fill:#fdfdfd;stroke:#f6f6f6;}.cls-32{stroke:#b8b1c4;stroke-dasharray:3 3;}.cls-33{fill:#f2958e;}</style></defs><g id="Layer_2" data-name="Layer 2"><g id="Layer_1-2" data-name="Layer 1"><circle class="cls-1" cx="177.49" cy="177.49" r="173.99"/><path class="cls-2" d="M50.06,228.74c-.88-4.5-1.45-8.75-2.34-13.1-2.06-10.18-9-21.75-11.35-25.38-.35-.54-.58-.91-.69-1.07.24.32.48.63.7.95C52,211.28,50.06,228.74,50.06,228.74Z"/><path class="cls-3" d="M106.66,222.6c-.32-.63-.62-1.26-.91-1.88s-.68-1.51-1-2.24c-.14-.37-.29-.73-.43-1.09s-.38-1-.54-1.46c-.59-1.62-1.06-3.14-1.44-4.52a1.36,1.36,0,0,1,0-.17,1.42,1.42,0,0,1,0-.36A79,79,0,0,0,106.66,222.6Z"/><path class="cls-4" d="M110.52,224.84c-.7.29-1.44.56-2.2.82l-.16.05a27.49,27.49,0,0,1-3.15.83h0l-.42.07-.35,0a14.79,14.79,0,0,1-6.82-.29h.09a31.47,31.47,0,0,0,4.83.27h.07c.38,0,.77-.08,1.16-.13s.64-.09,1-.15h0l1.07-.2c.32-.06.64-.14,1-.22l.15,0h0c.45-.1.9-.22,1.35-.35l.16,0Q109.38,225.21,110.52,224.84Z"/><path class="cls-2" d="M116.46,220.35c-.52-.35-1-.7-1.51-1.06l0,0c-.41-.3-.8-.61-1.19-.93-.69-.55-1.35-1.12-2-1.71l-.67-.64a37,37,0,0,1-4.78-5.71c-.24-.35-.47-.69-.69-1a40.63,40.63,0,0,1-2.65-4.86q-.17-.35-.3-.66c-.38-.86-.71-1.7-1-2.51-.11-.31-.22-.62-.32-.92-.27-.8-.51-1.56-.71-2.29-.06-.2-.11-.39-.16-.58q-.28-1.1-.48-2l-.2-1c0-.19-.07-.37-.1-.54-.12-.72-.18-1.28-.22-1.64s0-.46,0-.46l.12.42a68.42,68.42,0,0,0,8.76,19.39A34.63,34.63,0,0,0,116.46,220.35Z"/><path class="cls-4" d="M118.46,221.69l-.11.05-1.28.56h0l-1.54.65c-1.63.67-3.3,1.31-5,1.86a40.2,40.2,0,0,0,4.57-2.22l.77-.45a.05.05,0,0,0,0,0l.39-.23c.63-.38,1-.66,1.2-.76l.07,0,.8.57Z"/><path class="cls-5" d="M229.82,304.37c-4.25.41-23.66,2.55-31.22,7.67-8.5,5.76-36.39,2.78-36.39,2.78s22.76-7.28,23.78-13c0,0-46.3,15.47-74.05-2.73,0,0,19.34,1.59,26.61-2.5,0,0-36.13,1-62.64-31.33.58.49,14.68,12.25,31.33,0,0,0-16.12,4.14-35.55-7.57A70,70,0,0,0,88,264.07a25.74,25.74,0,0,0,9,1.16h.28l.33,0,.55,0,.66-.06.52-.05.44-.05c2.61-.27,6.21-.8,7.46-1.71A133.14,133.14,0,0,0,123.1,250.1v0c.14-.24,1.54-2.74,3.55-6.52.87.42,1.38.61,1.38.61,9.65,4.61,22.67,6.56,40.23,3.05a113.32,113.32,0,0,1-12.75-3.2,64.1,64.1,0,0,0,7.92,1.46,65.39,65.39,0,0,0,12,.39c-4,4.52-3.71,8.19-3.71,8.19C190.41,304.87,224.13,304.77,229.82,304.37Z"/><path class="cls-4" d="M107.25,263.29c-1.25.91-4.85,1.44-7.46,1.71A40.9,40.9,0,0,0,107.25,263.29Z"/><path class="cls-6" d="M168.27,247.22c-17.56,3.51-30.58,1.56-40.23-3.05,0,0-.51-.19-1.38-.61,1.74-3.27,3.93-7.5,6.13-12.06l4.09,3.08a38.57,38.57,0,0,0,10.3,6.59l.09,0a50.57,50.57,0,0,0,8.25,2.81A113.32,113.32,0,0,0,168.27,247.22Z"/><path class="cls-7" d="M246.8,235.52l-.42.26c-3.17,1.15-6.48,15.27-5.9,22.32.37,4.55,1.87,8.92,3,12.45a28.43,28.43,0,0,1,1.3,5c.43,3.75-6.05,10.23-6.05,10.23s.94-.11,1.66,1.86l0,.06a14.08,14.08,0,0,1,.65,3.26,18.62,18.62,0,0,1-1.05,5.58h0l-.24.7a.09.09,0,0,1,0,.07,21,21,0,0,1-2.65,4.23l0,0h0a.17.17,0,0,1,.06,0,1.19,1.19,0,0,1,.49.65,1.45,1.45,0,0,1,.13.57h0a7.72,7.72,0,0,1-.83,1.59S214.18,297,199.09,282.5l0,0c-11.74-11.29-18.84-26.86-6.92-46.54,0,0,0,0,0,0s6.23-9.67,22.14-12.84c1.45-.29,3-.53,4.59-.7,1.25-.13,2.56-.22,3.92-.27h.1L236.22,232l-1.52-2.79a40.44,40.44,0,0,0-13.25-22c-1.06-4.22-1.4-4.23-2.26-8s2.56-14.73,2.56-14.73a2.62,2.62,0,0,1,1.46-.27c-.26,1.25-.41,2.25-.41,2.25s1.31,3.85,4.66.65c0,0,0-.32.06-.83a17.63,17.63,0,0,1,1.47,1.37,22.32,22.32,0,0,0-1.53,3s.24,5.18,4.95,3.43c0,0-.14-1.24-.39-2.72.45.64.92,1.32,1.4,2.07,7.49,11.67,11.81,27.95,11.81,27.95a61.36,61.36,0,0,1,2.05,8.39C247.67,232.32,247.71,234.66,246.8,235.52Z"/><path class="cls-2" d="M222.79,222.1c-1.36.05-2.67.14-3.92.27A35.92,35.92,0,0,1,222.79,222.1Z"/><path class="cls-2" d="M201.43,226.93a133.93,133.93,0,0,0-13.13,7.62c-1.86,1.22-3.72,2.55-5.47,3.92q2.56-2.24,5.15-4.07A66.85,66.85,0,0,1,201.43,226.93Z"/><path class="cls-4" d="M110.52,224.84c-.7.29-1.44.56-2.2.82l-.16.05a27.49,27.49,0,0,1-3.15.83h0l-.42.07-.35,0a14.79,14.79,0,0,1-6.82-.29h.09a13.4,13.4,0,0,0,3.59.34c.41,0,.82,0,1.24-.07h.07c.38,0,.77-.08,1.16-.13s.64-.09,1-.15h0l1.07-.2c.32-.06.64-.14,1-.22l.15,0h0c.45-.1.9-.22,1.35-.35l.16,0Q109.38,225.21,110.52,224.84Z"/><path class="cls-8" d="M101.86,302.27a118.82,118.82,0,0,1-27.3-26.85A206.65,206.65,0,0,0,101.86,302.27Z"/><path class="cls-8" d="M102,302.35a101.66,101.66,0,0,0,21.57,11.48C113.85,310.31,106.14,306.25,102,302.35Z"/><path class="cls-8" d="M123.53,313.83c3.66,1.33,7.6,2.59,11.74,3.73A97.65,97.65,0,0,1,123.53,313.83Z"/><path class="cls-6" d="M236.93,304.43c-1.93,2.49-8.24,6.89-26.55,14.22-20.73,8.3-51.21,5.51-75.11-1.09,24.5,6.18,55.84,4.46,95.33-13.25Z"/><path class="cls-2" d="M84.06,199.48c-.42.12-.84.24-1.25.34l-.37.09A40.68,40.68,0,0,1,75.1,201h-.34c-1.36.07-2.67.07-3.9,0l4.14-.49.39-.05,5-.59h0l2.12-.25.36,0Z"/><path class="cls-2" d="M99.45,192.17,98,193h0c-.6.33-1.32.73-2.18,1.18l3.66-2.49S99.42,191.87,99.45,192.17Z"/><path class="cls-4" d="M105,226.55c-.94.07-1.81.1-2.6.11"/><path class="cls-2" d="M35.63,189.11h0l-1.8-2.42.07,0c.38.2,2.21,1.15,4.19,2h0a13.82,13.82,0,0,0,4.82,1.39l.46,0h.12l.37,0"/><path class="cls-2" d="M44,190h-.13l-.37,0h-.12l-.46,0,9.43,5.16"/><path class="cls-9" d="M122.54,196.56a14.86,14.86,0,0,1,1.55-3.2l-1.25,3-.57,1.36A4.7,4.7,0,0,1,122.54,196.56Z"/><path class="cls-9" d="M124.1,193.35Z"/><path class="cls-9" d="M144.11,200.88l3.31-1.54a0,0,0,0,0,0,0s-1,3.75-5.55,9.91A44,44,0,0,0,144.11,200.88Z"/><path class="cls-10" d="M152.33,188.09c-.24.59-.49,1.18-.73,1.76l0,.09-8.64,4.26-.57.27,0,0-9.1,4.48-5.15,2.54h0s.09.14.16.25c.25.43.5.83.75,1.19l.16.22.28.39.4.5v0c.08.09.15.18.24.27l-.11.11c-.61.6-1.26,1.25-1.93,1.94l-.06.1-8.76,15.05-.63-.18-.49-.15h0l-.49-.14,0,.1h0c0,.08,0,.19,0,.28a1.5,1.5,0,0,1,0,.18.37.37,0,0,1-.08-.15c-.05-.09-.1-.22-.15-.33a.83.83,0,0,0-.12-.24l-.49-.32,0,0-.36-.25a34.63,34.63,0,0,1-8.17-8.83c-.25-.41-.56-.88-.9-1.38h0a2,2,0,0,1-.16-.26l0,0,0-.06-.12-.19c0-.06-.07-.11-.1-.16a20.33,20.33,0,0,1-1.68-2.9h0l-.09-.21h0a5.27,5.27,0,0,1-.19-.51,13.6,13.6,0,0,0,5.15.87,10.18,10.18,0,0,0,2.16-.43c2.92-.91,8.09-6.41,9.58-8l-6.46,7.58c.09,0,.64-.24,1.53-.63l.63-.28.35-.16.76-.34c1-.48,2.26-1.08,3.6-1.79l.56-.29.91-.5.82-.46.27-.16,1.12-.65.89-.54.24-.15h0l.06,0c.58-.36,1.18-.74,1.77-1.15s.93-.63,1.39-1,1.15-.85,1.72-1.29l.94-.76.17-.14c.32-.26.63-.53.94-.81a33,33,0,0,0,2.67-2.62c.16-.17.32-.34.46-.52a22,22,0,0,0,2.94-4.25,4.11,4.11,0,0,0,.21-.42l.09-.19q.18-.37.33-.75a6.44,6.44,0,0,0,.24-.61,13.74,13.74,0,0,0,.54-1.87c0-.22.09-.43.12-.62a9.81,9.81,0,0,0,.13-1.08,5.34,5.34,0,0,0,0-.55h0a.49.49,0,0,0,0-.12,1.69,1.69,0,0,0,0-.23,1.2,1.2,0,0,0,0-.2,3.21,3.21,0,0,0-.08-.36.38.38,0,0,0-.05-.15l-.06-.14a1.38,1.38,0,0,0-.14-.24,1,1,0,0,0-.14-.15l-.06-.05a.57.57,0,0,0-.13-.08l0,0-.05,0a.88.88,0,0,0-.23-.07,1.53,1.53,0,0,0-.3,0l-.23,0-.29,0a2.21,2.21,0,0,0-.47.13l-.37.15a5.48,5.48,0,0,0-.6.29l-.32.18-.47.28a5,5,0,0,0-.51.34l-.41.28-.64.47c-.22.16-.44.34-.66.52l-.26.21-.75.62-.69.6-.34.3-.62.57c-.95.86-1.89,1.77-2.79,2.67-.22.21-.44.43-.65.65s-.7.71-1,1.06h0l0,.05h0l-.47.5-.46.48-.85.9-.48.52L125,192.38l0,.05-.34.38-.13.15c-.16.17-.26.29-.31.35.21-.36.46-.74.74-1.15l0,0c.53-.76,1.17-1.59,1.93-2.5h0l0,0a59.39,59.39,0,0,1,6.14-6.21c.69-.62,1.37-1.18,2-1.69a24.25,24.25,0,0,1,7.8-4.21,12.21,12.21,0,0,1,6-.38l.22,0h0a5,5,0,0,1,1.23.43,11.5,11.5,0,0,1,1.86,3A9.54,9.54,0,0,1,152.33,188.09Z"/><path class="cls-3" d="M116.46,220.35c-.52-.35-1-.7-1.51-1.06l0,0a28.31,28.31,0,0,1-6.61-7.73A34.63,34.63,0,0,0,116.46,220.35Z"/><path class="cls-4" d="M118.4,221.66c-.13-.07-.43-.24-.87-.52l.07,0Z"/><path class="cls-10" d="M201.45,227.35h0c-4.27,2-14.62,7.9-14.62,7.9-1.33,1-2.66,2.06-4,3.21a34.33,34.33,0,0,0-7.16,7.16l0,0-.16.18,0,0h0a65.39,65.39,0,0,1-12-.39l1.48-1.22s3.17-6.85,13.72-14.41c0,0,6-3.7,9.33-5.66C188,224.19,191.66,222.7,201.45,227.35Z"/><path class="cls-2" d="M175.64,245.66l-.13.2,0,0Z"/><path class="cls-2" d="M201.43,226.93a133.93,133.93,0,0,0-13.13,7.62c-1.86,1.22-3.72,2.55-5.47,3.92q2.56-2.24,5.15-4.07A66.85,66.85,0,0,1,201.43,226.93Z"/><path class="cls-10" d="M236.21,232l-13.32-9.88-1.44-14.86v-.06a40.44,40.44,0,0,1,13.25,22Z"/><path class="cls-6" d="M230.6,304.31l.05,0-.19,0-.22,0-.38,0h0c-5.69.4-39.41.5-58.07-50.31,0,0-.25-3.67,3.71-8.19h.06l.67-.77.11-.12a71.45,71.45,0,0,1,6.54-6.5c1.36-1.06,2.78-2.1,4.22-3.08.41-.29.83-.57,1.25-.84A140.26,140.26,0,0,1,201,227.14l.44-.21h0a65,65,0,0,1,12.83-3.85c-15.91,3.17-22.14,12.84-22.14,12.84s0,0,0,0c-11.92,19.68-4.82,35.25,6.92,46.54l0,0c15.09,14.5,37.84,21.93,37.84,21.93Z"/><path class="cls-2" d="M176.18,245.09l-.67.77h0l0,0,.16-.18,0,0Q175.91,245.36,176.18,245.09Z"/><path class="cls-11" d="M230.65,304.29l-.05,0c-39.49,17.71-70.83,19.43-95.33,13.25a97.65,97.65,0,0,1-11.74-3.73A101.66,101.66,0,0,1,102,302.35l-.1-.08a118.82,118.82,0,0,1-27.3-26.85A121.65,121.65,0,0,1,59,247.89c.38.36.76.72,1.14,1.05.19.19.38.36.57.52l.48.42c.18.17.35.33.53.47,1.08,1,2.16,1.85,3.23,2.67l.74.57c.32.25.63.49.94.71q2.51,1.84,5,3.31l.16.09c19.43,11.71,35.55,7.57,35.55,7.57-16.65,12.27-30.75.51-31.33,0,26.51,32.31,62.64,31.33,62.64,31.33-7.27,4.09-26.61,2.5-26.61,2.5,27.75,18.2,74.05,2.73,74.05,2.73-1,5.69-23.78,13-23.78,13s27.89,3,36.39-2.78c7.56-5.12,27-7.26,31.22-7.67h0l.38,0,.22,0Z"/><path class="cls-10" d="M270.49,229.21h0a8.42,8.42,0,0,1-.71,2.95,17.08,17.08,0,0,1-1.63,3.74c-1.68,3.09-4.23,7.68-7.11,12.51a0,0,0,0,1,0,0c-5.64,9.44-12.54,19.79-16.71,21.73l-.82.38c-1.15-3.53-2.65-7.9-3-12.45-.58-7.05,2.73-21.17,5.9-22.32l.42-.26c.91-.86.87-3.2.48-5.75l.26-.71s12.57-10.57,18.52-10.46h.1C270.33,218.76,270.66,225.34,270.49,229.21Z"/><path class="cls-12" d="M141.57,183.44c-2.84,13.36-26.18,22.35-26.18,22.35l6.6-7.74.11-.12.16-.18,1.83-4.4S144.41,170.09,141.57,183.44Z"/><path class="cls-13" d="M106.66,222.6c-.32-.63-.62-1.26-.91-1.88s-.68-1.51-1-2.24c-.14-.37-.29-.73-.43-1.09s-.38-1-.54-1.46c-.59-1.62-1.06-3.14-1.44-4.52a1.36,1.36,0,0,1,0-.17,1.42,1.42,0,0,1,0-.36A79,79,0,0,0,106.66,222.6Z"/><path class="cls-14" d="M110.52,224.84c-.7.29-1.44.56-2.2.82a.57.57,0,0,1-.08-.13Q109.38,225.21,110.52,224.84Z"/><path class="cls-14" d="M115.53,223c-1.63.67-3.3,1.31-5,1.86a40.2,40.2,0,0,0,4.57-2.22C115.26,222.73,115.39,222.84,115.53,223Z"/><path class="cls-4" d="M155.52,244a50.57,50.57,0,0,1-8.25-2.81C150.22,242.32,153,243.25,155.52,244Z"/><line class="cls-2" x1="188.3" y1="234.55" x2="187.98" y2="234.4"/><path class="cls-11" d="M313,183.84c1.84,14.67-4.93,28.88-4.93,28.88s-.31-11.43-1.08-15.13-4.17-9-9.11-13.37-8.86-15.37-8.86-15.37c-6.68,9.76-2.65,21-2.65,21-14.72-17.6-7.59-41.29-7.59-41.29-9.78,8-8.29,20.47-8.29,20.47-4.19-3.73-3.71-20.56-3.69-21.08h0c24.37-34.81,57.93-13.56,57.93-13.56-50,2.92-16.72,57.13-16.72,57.13,2.76-8.44,1.63-18.74,1.63-18.74a72.4,72.4,0,0,1,3.36,11.1Z"/><path class="cls-13" d="M265.66,149.63c-3.71,6.45-3.25,16.3-3.25,16.3-5.59-4.35-6.4-13.09-6.44-13.58A37.76,37.76,0,0,1,267.13,137c-9.08,12.16-5,18.65-5,18.65C263.26,153.46,264.45,151.47,265.66,149.63Z"/><path class="cls-7" d="M323,209.41c-1.14,15.58-10.23,31.8-10.23,31.8a43.79,43.79,0,0,1-5.68,18.27,54,54,0,0,1-3.11,4.79l-.06.07a22.53,22.53,0,0,1-10.16,6.21c14.36-21.56,5.09-41.34,5.09-41.34.47,17.57-5.71,22.74-5.71,22.74,8-24.37-11.24-48.94-12.24-50.2,5.92,10.26,4.67,14.46,4.67,14.46-10.8-16.64-27.39-28.63-27.91-29h0c-6.29-14.86-5-26.52-1.66-34.85,0,.49.85,9.23,6.44,13.58,0,0-.46-9.85,3.25-16.3.38-.59.77-1.16,1.17-1.72,0,.52-.5,17.35,3.69,21.08,0,0-1.49-12.42,8.29-20.47,0,0-7.13,23.69,7.59,41.29,0,0-4-11.2,2.65-21,0,0,3.91,11,8.86,15.37s8.34,9.66,9.11,13.37,1.08,15.13,1.08,15.13,6.77-14.21,4.93-28.88c5.48,25.16-3,47.89-1.58,47.32C313.08,230.51,323,209.41,323,209.41Z"/><path class="cls-6" d="M303.9,264.34c-3.92,5.45-8.47,10.08-12.25,15.47-7.95,11.31-33,14.16-33,14.16,8.24,1.14,7,1.14,7,1.14-8,9.58-25.94,9.32-25.94,9.32h-2.78a3.3,3.3,0,0,0,.7-2.17,1.19,1.19,0,0,0-.49-.65.17.17,0,0,0-.06,0h0l0,0a21,21,0,0,0,2.65-4.23.09.09,0,0,0,0-.07,14.07,14.07,0,0,0,1.14-3.48,3,3,0,0,0,.08-.41s0-.06,0-.09a8.37,8.37,0,0,0-.59-5.57l0-.06c15.23-5.85,20.47-38.17,20.62-39.18a0,0,0,0,0,0,0l3,7c9.86-6.22,9.12-17.37,6.43-26.2h0c.17-3.87-.16-10.45-4.33-10.61h-.1c-.75-1.42-1.28-2.28-1.34-2.38l6.48,2.38c-3.87-17-17.61-28.16-18.89-29.17l8.83,5.62-2.48-5.52c-.36-.78-.71-1.56-1-2.32.52.37,17.11,12.36,27.91,29,0,0,1.25-4.2-4.67-14.46,1,1.26,20.22,25.83,12.24,50.2,0,0,6.18-5.17,5.71-22.74,0,0,9.27,19.78-5.09,41.34A22.53,22.53,0,0,0,303.9,264.34Z"/><path class="cls-2" d="M237.63,302.26a1.7,1.7,0,0,0-.49-.65A1.19,1.19,0,0,1,237.63,302.26Z"/><path class="cls-2" d="M240.94,293.75a14.07,14.07,0,0,1-1.14,3.48.09.09,0,0,1,0,.07,21,21,0,0,1-2.65,4.23,24.46,24.46,0,0,0,2.92-5h0A15.79,15.79,0,0,0,240.94,293.75Z"/><path class="cls-15" d="M232.4,194.08c-4.71,1.75-5-3.43-5-3.43a22.32,22.32,0,0,1,1.53-3c.59-.89,1.22-1.51,1.66-1,.57.66,1.05,2.85,1.36,4.69h0C232.26,192.84,232.4,194.08,232.4,194.08Z"/><path class="cls-15" d="M227.51,186.3c0,.51-.06.83-.06.83-3.35,3.2-4.66-.65-4.66-.65s.15-1,.41-2.25c.55-2.58,1.6-6.24,2.89-4.52C227.52,181.62,227.57,184.8,227.51,186.3Z"/><path class="cls-2" d="M84.06,199.48c-.42.12-.84.24-1.25.34l-.37.09A40.68,40.68,0,0,1,75.1,201h-.34c-1.36.07-2.67.07-3.9,0l4.14-.49.39-.05,5-.59h0l2.12-.25.36,0Z"/><path class="cls-2" d="M99.53,192.13a.2.2,0,0,1-.08,0L98,193h0c-.6.33-1.32.73-2.18,1.18l3.66-2.49Z"/><path class="cls-2" d="M112.87,159.39l-.64,0C112.67,159.28,112.85,159.29,112.87,159.39Z"/><path class="cls-6" d="M90.35,150.67s-12,11.41-18.12,8.06-17.88,8.62-17.88,8.62c-4.24,1.2-6.07,16-6.07,16s-2.64,1.44-7.35-2.71,7.19-14.3,7.19-14.3l.48,1.52,1.52.07,5.24-10.54-4.26-.9,1.57-2.6S74.86,141,90.35,150.67Z"/><path class="cls-6" d="M92.35,166.16C84.36,176.53,89,185.8,89,185.8c-8.54,1.27-13.65-4.4-15.64-11.1s13.17-11.58,13.17-11.58,10.46-6.31,9.58-8.94l3,.6,5.49,2.91Z"/><path class="cls-16" d="M118.45,162.92l-.93,1.16c-1.09,2.23-6.17,1.84-6.17,1.84-2.87-3.15,1.58-6,1.52-6.53l.95,0S119.88,160,118.45,162.92Z"/><path class="cls-17" d="M259.89,156.52c-9.43-23.85-19.15-39.07-22.09-43.45a2.82,2.82,0,0,1,.18-.29C251.14,118.28,263.89,145.1,259.89,156.52Z"/><path class="cls-4" d="M97.09,265.23l-.26,0"/><path class="cls-18" d="M99.47,191.68c.43-.17-3.72,2.52-3.72,2.52l-.09.05-11.58,5.22h0l-1.15.14-.36,0-2.12.25h0l-5,.59-.39.05-4.14.49h0s-10.86-3-18.5-5.79l-9.43-5.16a31.85,31.85,0,0,1-4.82-1.39h0a23.71,23.71,0,0,1-4.1-1.94l-.09-.05-.07,0c-7-4.29-11.17-13.23,17.29-30.22l4.26.9L50.13,167.9l-1.52-.07-.48-1.52s-11.9,10.14-7.19,14.3,7.35,2.71,7.35,2.71,1.83-14.77,6.07-16c0,0,11.81-12,17.88-8.62s18.12-8.06,18.12-8.06,4.87.88,5.75,3.51-9.58,8.94-9.58,8.94l0,0-.28.09-.43.15-.18.07-1,.39-.59.24h0l-.49.21-.55.24c-.54.23-1.12.5-1.72.8l-.93.48,0,0-.46.25-.7.41-.7.42h0c-.19.12-.38.24-.56.37s-.48.34-.72.52h0l-.2.15c-.17.13-.34.26-.5.4l-.53.45c-.17.15-.33.3-.48.46s-.32.32-.45.48-.21.23-.3.35l-.2.26-.07.11c-.13.19-.26.37-.37.57l-.07.11s0,0,0,0a2.2,2.2,0,0,0-.15.31c-.06.12-.11.25-.16.37a3.3,3.3,0,0,0-.12.38,2.74,2.74,0,0,0-.09.39,2.63,2.63,0,0,0-.06.39,3.87,3.87,0,0,0,0,.9h0a3.66,3.66,0,0,0,.14.72c.17.58.37,1.16.59,1.72l.33.8c.13.29.27.58.41.86s.27.53.42.79.3.52.46.77.24.38.38.57.42.59.64.87.32.39.5.58.33.38.51.56.53.52.82.77.44.36.67.53.45.34.69.49h0c.23.15.46.29.69.41s.57.31.86.44.55.24.83.34l.38.13a6.13,6.13,0,0,0,.61.18,2.14,2.14,0,0,0,.34.09,5.61,5.61,0,0,0,.59.13l.28,0,.48.08.22,0c.11,0,.22,0,.34,0l.34,0h.15A15.7,15.7,0,0,0,89,185.8s-.1-.2-.24-.57l-.18-.49c0-.11-.08-.24-.12-.37s-.14-.47-.21-.74c0-.08,0-.16-.07-.25l-.09-.4c0-.18-.08-.36-.11-.56s-.07-.39-.1-.59,0-.2,0-.29l-.06-.48c0-.16,0-.33,0-.5v-.07c0-.45-.06-.94-.06-1.44a20.85,20.85,0,0,1,4.69-12.89l12.21-8.47s5,2.24,7.67,1.68l.64,0c.06.52-4.39,3.38-1.52,6.53,0,0,5.08.39,6.17-1.84C117.53,164.08,112.63,184.71,99.47,191.68Z"/><line class="cls-2" x1="230.6" y1="304.31" x2="230.46" y2="304.31"/><path class="cls-19" d="M82.47,170.81a3.3,3.3,0,0,0-6.34,1.29,3.25,3.25,0,0,0,.36,1.49,41.65,41.65,0,0,1-7,.52s4.11-10.74,13.2-4.13A1.53,1.53,0,0,1,82.47,170.81Z"/><path class="cls-20" d="M82.47,170.81h0c-.49.84-1.91,2.09-6,2.77a3.25,3.25,0,0,1-.36-1.49,3.3,3.3,0,0,1,6.34-1.29Z"/><circle class="cls-19" cx="78.73" cy="169.43" r="0.99"/><path class="cls-21" d="M256,152.35v0"/><path class="cls-21" d="M266.83,147.91a13,13,0,0,0-1.17,1.72"/><path class="cls-21" d="M280.85,201.71a0,0,0,0,1,0,0"/><path class="cls-15" d="M269.05,227.82c-3.16-1.53-.66-4.15-.66-4.15a15.17,15.17,0,0,1,2.24-.67c.73-.13,1.35-.12,1.31.35a9.57,9.57,0,0,1-1.71,3h0C269.61,227.15,269.05,227.82,269.05,227.82Z"/><path class="cls-15" d="M267.67,221.5l-.3.4c-2.76.47-2.12-1.9-2.12-1.9s.41-.45,1-1c1.15-1.11,2.91-2.59,3-1.3A6.73,6.73,0,0,1,267.67,221.5Z"/><path class="cls-6" d="M50.06,228.74l0-.08c-.58-1.63-10.49-29.36-13.59-38a1.22,1.22,0,0,1-.07-.41.49.49,0,0,1,0-.12C52,211.28,50.06,228.74,50.06,228.74Z"/><path class="cls-22" d="M71.53,257.61a50.2,50.2,0,0,1-5-3.31Q69.09,256.15,71.53,257.61Z"/><path class="cls-23" d="M82.81,199.82c-.84,1.6-1.34,2.68-1.5,3a28.63,28.63,0,0,1,1.13-2.94Z"/><path class="cls-7" d="M99.77,194.35c0-.19-.07-.37-.1-.54a.14.14,0,0,1,0,.06C99.71,194,99.74,194.18,99.77,194.35Z"/><path class="cls-22" d="M104.21,226.67a14.79,14.79,0,0,1-6.82-.29h.09a31.47,31.47,0,0,0,4.83.27,8.07,8.07,0,0,0-1.24.07A9.17,9.17,0,0,0,104.21,226.67Z"/><path class="cls-22" d="M107.62,224.65c-.3-.59-.59-1.19-.85-1.82.23.45.47.89.71,1.34A1.25,1.25,0,0,1,107.62,224.65Z"/><path class="cls-22" d="M118.46,221.69l-.11.05.05-.08Z"/><path class="cls-13" d="M116.25,221.86a1,1,0,0,1-.31.27.05.05,0,0,1,0,0l-.77.45a40.2,40.2,0,0,1-4.57,2.22l0,0q-1.14.38-2.28.69c-.26-.45-.52-.91-.76-1.36s-.48-.89-.71-1.34a1.63,1.63,0,0,1-.11-.23,79,79,0,0,1-4.33-11.72c-.47-2.06-.25-3,.83-2.6,1.67.65,5.39,4.6,11.79,12.86Z"/><path class="cls-14" d="M110.52,224.84c-.7.29-1.44.56-2.2.82l-.16.05-.08-.14c-.16-.3-.32-.61-.46-.92-.3-.59-.59-1.19-.85-1.82.23.45.47.89.71,1.34s.5.91.76,1.36Q109.38,225.21,110.52,224.84Z"/><path class="cls-14" d="M117.07,222.3h0l-1.54.65c-1.63.67-3.3,1.31-5,1.86a40.2,40.2,0,0,0,4.57-2.22l.77-.45a.05.05,0,0,0,0,0,1,1,0,0,0,.31-.27l.08,0Z"/><path class="cls-22" d="M126.66,243.56c-2,3.78-3.41,6.28-3.55,6.52l3.09-6.74Z"/><path class="cls-7" d="M144.11,200.88a44,44,0,0,1-2.25,8.39v0c-1.78,6.39-5.44,14.73-9.06,22.21-2.2,4.56-4.39,8.79-6.13,12.06-.15,0-2.94,5.35-3.47,6.36l0,.09,0,.05a0,0,0,0,0,0,0v0a133.14,133.14,0,0,1-15.85,13.19A40.9,40.9,0,0,1,99.79,265l-.44.05-.52.05-.66.06-.55,0-.33,0H97a34.77,34.77,0,0,1-9-1.16,70,70,0,0,1-16.28-6.37l-.16-.09q-2.44-1.47-5-3.31c-.31-.22-.62-.46-.94-.71L64.9,253l-.79-.64c-.36-.28-.71-.58-1.06-.87s-.54-.44-.8-.67-.39-.34-.58-.49l-.53-.47-.48-.42-.57-.52c-.38-.33-.76-.69-1.14-1.05a121.65,121.65,0,0,0,15.61,27.53c-.81-.95-1.6-1.91-2.39-2.88A140.92,140.92,0,0,1,61.6,257.79c-7.31-11.89-9.93-20.84-11.52-29,0,0,0,0,0-.08a28.49,28.49,0,0,0-.06-5c0-.49-.09-1-.15-1.57s-.14-1.14-.23-1.76-.19-1.15-.3-1.76c0-.12,0-.25-.07-.38-.09-.49-.2-1-.32-1.52l0-.14c0-.16-.07-.33-.11-.5-.13-.55-.27-1.12-.42-1.7s-.27-1-.42-1.49c-.22-.77-.46-1.56-.74-2.37-.18-.52-.36-1.06-.56-1.6-.08-.24-.18-.48-.27-.72s-.17-.46-.26-.7l0,0s0-.09-.05-.13l0-.07c-.27-.7-.57-1.41-.88-2.13-.21-.48-.42-1-.65-1.44s-.44-1-.68-1.43-.47-1-.73-1.45-.49-.95-.75-1.43c-1.11-2-2.38-4.15-3.83-6.3-.31-.47-.64-.95-1-1.43s-.71-1-1.08-1.51h0l-.06,0-1.83-2.61,0,0-.63-.9.09.05.12.06,4,1.88h0l.07,0,.13.06c1.68.81,12.6,5.93,14.05,6.46,7.64,2.81,18.5,5.79,18.5,5.79h.07c.5,0,2.11-.16,4-.39l.38,0c1.64-.19,3.47-.42,5-.62h0l2.14-.28.36-.05,1.1-.16.07,0,.58-.26.38-.17.47-.21.37-.17.82-.37,2.4-1.08,1.32-.6,1-.45,3-1.35.45-.2.18-.08.3-.14.21-.09.11-.05h0l.09-.05h0a0,0,0,0,0,0,0l0,0,.11,0,.1-.05.53-.28.88-.48.47-.26.07,0,.08,0,.21-.12.16-.09.52-.29.16-.09.09,0,.23-.13h0l.06,0h0c.89.59,4.14,10.93,4.39,11.67a.1.1,0,0,0,0,0c.06.11.11.23.17.35s.11.24.18.37c.29.61.61,1.26,1,1.91h0c.32.61.66,1.21,1,1.79l.14.23a1.18,1.18,0,0,0,.11.19c.06.09.12.2.19.32s.15.24.22.37.07.1.1.16l.12.19,0,.06,0,0a2,2,0,0,0,.16.26h0q.24.36.45.72c.93,1.6,1.5,3.25,2.89,4.77.11.11.22.23.34.34l.67.64c.62.59,1.28,1.16,2,1.71.39.32.78.63,1.19.93l0,0c.49.36,1,.71,1.51,1.06l.36.25,0,0c.26.14,1.11.51,1.23.61l-.15.1,0,0-.22.12a.05.05,0,0,1,0,0l-.94.58-.43.25-.26-.24-1-1c-6.4-8.26-10.12-12.21-11.79-12.86-1.08-.42-1.3.54-.83,2.6a1.42,1.42,0,0,0,0,.36,1.36,1.36,0,0,0,0,.17c.38,1.38.85,2.9,1.44,4.52.16.48.35,1,.54,1.46s.29.72.43,1.09c.3.73.63,1.48,1,2.24s.59,1.25.91,1.88a1.63,1.63,0,0,0,.11.23c.26.63.55,1.23.85,1.82.14.31.3.62.46.92-.45.13-.9.25-1.35.35h0l-.15,0-1,.22-1.07.2h0q-.48.09-1,.15c-.39.05-.78.1-1.16.13h-.07a31.47,31.47,0,0,1-4.83-.27h-.09a14.79,14.79,0,0,0,6.82.29l.35,0,.42-.07h0a27.49,27.49,0,0,0,3.15-.83l.16-.05c.76-.26,1.5-.53,2.2-.82l0,0c1.67-.55,3.34-1.19,5-1.86l1.54-.65h0l1.28-.56h0l0-.07.19-.28c1.4-2.2,8.64-13.69,9.39-14.87l.06-.1c.67-.69,1.32-1.34,1.93-1.94l.11-.11c5.12-5.05,8.49-7.49,10.66-8.26-.05.05-.09.11-.14.17-.48.59-.83,1.09-.83,1.09s-.35,2.41,2.31,1.61c0,0,.11-.16.26-.42a9.24,9.24,0,0,0,1-2.37C144.28,196.94,144.38,198.8,144.11,200.88Z"/><path class="cls-24" d="M142.83,204c-3-.34-1.71-3.18-1.71-3.18a13.54,13.54,0,0,1,1.63-1.18c.56-.31,1.07-.47,1.16-.08a7.89,7.89,0,0,1-.55,2.88h0C143.1,203.34,142.83,204,142.83,204Z"/><path class="cls-25" d="M142.92,194.2l-.57.27.13-.09.13-.07.14-.07A.59.59,0,0,1,142.92,194.2Z"/><polygon class="cls-26" points="161.16 185.11 160.58 185.49 151.56 189.94 142.92 194.2 142.35 194.47 142.33 194.49 133.23 198.97 128.08 201.51 142.48 194.38 142.61 194.31 142.75 194.24 151.6 189.85 161.16 185.11"/><path class="cls-25" d="M143.3,196.18a9.24,9.24,0,0,1-1,2.37c-.15.26-.26.42-.26.42-2.66.8-2.31-1.61-2.31-1.61s.35-.5.83-1.09c.05-.06.09-.12.14-.17a10.12,10.12,0,0,1,1.59-1.61l0,0,.57-.27c.23,0,.4.08.46.44A4,4,0,0,1,143.3,196.18Z"/><path class="cls-27" d="M262,159.51,237.11,173s-.64-2.24-2-6.16c-.16-.51-.36-1-.55-1.57a.64.64,0,0,0-.06-.18c-4-14.38-13.74-31.81-15.53-35a4.57,4.57,0,0,0-.24-.41l0-.09c-.56-1-1.14-2.12-1.75-3.2s-1.13-2-1.72-3.05L237.53,111l.9,1.3c2.94,4.38,12.66,19.6,22.08,43.44C261,157,261.48,158.23,262,159.51Z"/><path class="cls-27" d="M234.5,165.07a264,264,0,0,0-15.53-35C220.76,133.26,230.49,150.69,234.5,165.07Z"/><path class="cls-27" d="M234.56,165.25,209.63,176.3s-.66-2.31-1.92-5.9c-.27-.74-.52-1.46-.77-2.18-1.32-3.57-3.07-8-5.21-12.49-1.08-2.3-2-4.14-2.78-5.48-.09-.18-.2-.36-.3-.54-.49-.87-.84-1.48-1-1.79a.44.44,0,0,0-.08-.1s0,0,0,0,0,0,0,0,0,0,0,0v0c-.59-1-1.22-2-1.85-3s-1.4-2.06-2.14-3l25.2-12,0,.09a4.57,4.57,0,0,1,.24.41c.17.3.41.72.7,1.25l.78,1.42c3.38,6.18,10.7,20.3,14.05,32.3A.64.64,0,0,1,234.56,165.25Z"/><path class="cls-27" d="M208.1,171.55l-41,20.95-.1-.11c-.19-.21-.66-.73-1.31-1.51-.41-.5-.92-1.13-1.48-1.85a1.77,1.77,0,0,1-.12-.17c-.14-.17-.28-.35-.41-.53l-.24-.32-.49-.67-.57-.82,0,0a45.3,45.3,0,0,1-5.64-10.74,21.11,21.11,0,0,1-.64-2.15c0-.11-.06-.21-.09-.32a19.81,19.81,0,0,1-.6-4.09l.5-.25.89-.46,2.49-1.27,1.23-.63,5.42-2.76,1.77-.9,29.81-15.23h0s0,0,0,.05,0,0,0,0,0,0,0,0v0a.36.36,0,0,1,.07.1l.24.42a.21.21,0,0,0,0,.06,1.62,1.62,0,0,0,.1.18l0,0c.12.21.26.45.41.73.08.12.15.25.22.38a.3.3,0,0,1,0,.08c.09.15.17.3.25.45s.33.6.5.93l.15.27,0,0,.25.48q.51,1,1.08,2.13c.26.52.52,1.07.79,1.64l.6,1.28c.06.13.13.26.18.4,1,2.27,2.19,4.91,3.33,7.87.36.95.73,1.93,1.09,2.94l0,.05.75,2.13c.07.22.14.44.23.66a2.3,2.3,0,0,0,.14.42,0,0,0,0,1,0,0A.16.16,0,0,1,208.1,171.55Z"/><path class="cls-28" d="M165.68,190.88l-18.26,8.46-3.31,1.54c.27-2.08.17-3.94-.81-4.7a4,4,0,0,0,.08-1.54c-.06-.36-.23-.48-.46-.44l8.64-4.26,9-4.45.58-.38a38.59,38.59,0,0,0,3,3.92C164.76,189.75,165.27,190.38,165.68,190.88Z"/><path class="cls-27" d="M161.16,185.11l-.58.38-9,4.45-8.64,4.26-.57.27,0,0-9.1,4.48-5.15,2.54,0,0c-.29-.51-.59-1.07-.88-1.68a27.82,27.82,0,0,1-1.71-4.79.13.13,0,0,1,0-.08v0c-.19-.77-.37-1.58-.51-2.44a1.26,1.26,0,0,1,0-.27c-.08-.43-.15-.88-.21-1.34l2.19-1.24,1.54-.88h0l7.79-4.43.16-.09h0l5.46-3.11,1.55-.88.79-.44,4.65-2.65,4-2.26,3-1.47.14-.07a27.77,27.77,0,0,0,1.36,4.5h0A36.69,36.69,0,0,0,161.16,185.11Z"/><path class="cls-27" d="M156,173.28h0l-3.14,1.54,3.11-1.76a1.15,1.15,0,0,1,0,.21Z"/><path class="cls-27" d="M129.15,203.18l-.07,0-13.29,6.56a1.76,1.76,0,0,1-.62.18.69.69,0,0,1-.24,0,1.92,1.92,0,0,1-1.18-.23l-1.17.67s-.87-.18-2.12-3q-.17-.36-.33-.78c-.26-.66-.54-1.43-.83-2.34l1.48-.87a2.11,2.11,0,0,1,1-1.29l7.44-3.68,3.28-1.92.29-.17h0l2.46-1.44.22.45c.09.39.24,1,.47,1.76l0,.09a19.19,19.19,0,0,0,1.06,2.59c.16.32.33.64.52,1s.29.45.44.67l0,0h0s.09.14.16.25c.19.32.51.83.75,1.19Z"/><path class="cls-27" d="M125.53,195.39l-.22-.44.12-.08a.18.18,0,0,0,0,0,.23.23,0,0,0,0,.07A1.72,1.72,0,0,0,125.53,195.39Z"/><path class="cls-27" d="M151.6,162.25l-13.35,6.6,2.5,5.07h0l2.5,4.24.64,1.08.29.49-.78.44-7,4h0v0l-.16.09-4.71-10.41-2.17.83-5.67,2.18-.36-1.94a1.83,1.83,0,0,1-.56-.7l-.92-1.85a2,2,0,0,1,.58-2.43l0-.19,26.81-14.07.43,1a3.61,3.61,0,0,1,2,1.07l.92,1.86A2,2,0,0,1,151.6,162.25Z"/><path class="cls-28" d="M142.33,194.49a10.12,10.12,0,0,0-1.59,1.61c-2.17.77-5.54,3.21-10.66,8.26-.09-.09-.16-.18-.24-.27v0l-.4-.5-.28-.39L129,203c-.24-.36-.56-.87-.75-1.19-.07-.11-.12-.2-.16-.25h0l5.15-2.54Z"/><polygon class="cls-29" points="215.22 123.35 219.67 131.35 242.95 119.51 237.53 111 215.22 123.35"/><polygon class="cls-29" points="193.49 141.63 196.33 145.78 221.05 133.88 218.73 129.69 193.49 141.63"/><path class="cls-29" d="M155.36,169.19a12.54,12.54,0,0,0,.6,4.09l43.66-21.79s-1.83-3.33-2-3.57S155.36,169.19,155.36,169.19Z"/><polygon class="cls-29" points="124.67 190.82 125.42 194.87 157.31 177.79 155.96 173.28 124.67 190.82"/><path class="cls-28" d="M233.76,162.58l23.89-13.81s2.47,5.47,4.32,10.74L237.11,173A98,98,0,0,0,233.76,162.58Z"/><path class="cls-28" d="M206.94,168.22a82.12,82.12,0,0,1,2.69,8.08l24.93-11.05s.14-1.35-2.93-8.73Z"/><path class="cls-28" d="M162.34,186.48a59.46,59.46,0,0,0,4.75,6l41-20.94a52.35,52.35,0,0,0-2.77-7.52Z"/><path class="cls-29" d="M122.86,171.86s28-14,28-14.41-1.13-.77-1.13-.77l-.43-1-26.81,14.07a1.83,1.83,0,0,0-.54,2.62Z"/><line class="cls-30" x1="128.08" y1="201.52" x2="128.03" y2="201.54"/><path class="cls-31" d="M91.45,183.47c-1,1.25-2,2.5-3,3.71a98.53,98.53,0,0,0-6.8,10.38c-.84,1.47-1.32,2.45-1.43,2.66.32-.84.67-1.69,1.06-2.52A52,52,0,0,1,88,187.4h0C89.14,186,90.3,184.72,91.45,183.47Z"/><path class="cls-31" d="M105.61,170.78a105.77,105.77,0,0,0-11.85,10.3c-.75.75-1.51,1.54-2.27,2.35.64-.77,1.31-1.52,2-2.29A59,59,0,0,1,105.61,170.78Z"/><path class="cls-31" d="M74.51,194.47s12.87-17.6,30.17-24.56C104.68,169.91,82.77,180.43,74.51,194.47Z"/><path class="cls-31" d="M84.62,187.32c-.94,1.13-1.83,2.25-2.67,3.34a98.47,98.47,0,0,0-6.3,9.4l-.26.45-.29.5c-.88,1.53-1.42,2.59-1.61,3,.38-1,.8-2,1.27-2.94l.24-.46c0-.09.08-.17.13-.26A53.79,53.79,0,0,1,81.41,191C82.45,189.73,83.53,188.5,84.62,187.32Z"/><path class="cls-31" d="M98.79,174.62a104.52,104.52,0,0,0-8.72,7.28h0c-1.72,1.6-3.57,3.4-5.4,5.38,1.5-1.77,3.12-3.55,4.87-5.26,0,0,0,0,0,0A55.16,55.16,0,0,1,98.79,174.62Z"/><path class="cls-31" d="M92,185.55a94.41,94.41,0,0,0-9,14.07l-.1.2c-.84,1.6-1.34,2.68-1.5,3a28.63,28.63,0,0,1,1.13-2.94,1.89,1.89,0,0,1,.11-.25A60.42,60.42,0,0,1,92,185.55Z"/><path class="cls-31" d="M105.39,172.56A109.67,109.67,0,0,0,92,185.49,62.17,62.17,0,0,1,105.39,172.56Z"/><circle class="cls-2" cx="177.49" cy="177.49" r="173.99"/><polyline class="cls-32" points="291.2 109.57 249.22 78.61 195.06 55.47 135.26 72.92 135.2 72.94 135.18 72.89 135.14 72.8 118.67 37.65 58.95 78.61 89.95 106.72 134.25 73.61 135.05 72.8"/><path class="cls-33" d="M310.37,111a1.72,1.72,0,0,1-2.21,1.13,1.81,1.81,0,0,1-1.09-1.06l-4.41-.18a12.13,12.13,0,0,1-2,5.88l2.64,2a1.73,1.73,0,0,1,2.28.47,1.83,1.83,0,0,1-.17,2.38s0,0-.06,0a.32.32,0,0,1-.1.1,1.72,1.72,0,0,1-2.45-.35,1.84,1.84,0,0,1-.32-1.51l-2.68-2a11.37,11.37,0,0,1-3.9,3l-.12.06,1.34,3.39a1.79,1.79,0,0,1,.14,3.57,1.78,1.78,0,0,1-1.93-1.62,1.75,1.75,0,0,1,.49-1.44l-1.34-3.39a13,13,0,0,1-1.3.33,11.43,11.43,0,0,1-5.18-.17l-.78,2a1.88,1.88,0,0,1,.16,2.39,1.71,1.71,0,0,1-2.46.29,1.82,1.82,0,0,1-.32-2.52,1.67,1.67,0,0,1,1.33-.68l.74-1.94a11.84,11.84,0,0,1-4.86-3.54l-1.78,2a1.8,1.8,0,0,1-.69,2.25,1.73,1.73,0,0,1-2.41-.59,1.84,1.84,0,0,1,.57-2.48,1.65,1.65,0,0,1,1.49-.15l2-2.21a12.45,12.45,0,0,1-1.78-4.41l0-.13-3.71.7a1.72,1.72,0,0,1-1.87,1.38,1.79,1.79,0,0,1-1.58-2,1.72,1.72,0,0,1,3.18-.81l3.8-.73a11.83,11.83,0,0,1,.26-3.53l-2.29-.55a1.71,1.71,0,0,1-2.25.5,1.84,1.84,0,0,1-.69-2.46,1.72,1.72,0,0,1,2.38-.69,1.85,1.85,0,0,1,.88,1.25l2.35.57a12.22,12.22,0,0,1,2.52-4.24l-1.14-.84a1.73,1.73,0,0,1-2.27-.46,1.84,1.84,0,0,1,.3-2.53,1.73,1.73,0,0,1,2.47.34,1.86,1.86,0,0,1,.33,1.49h0l1.34,1a11.42,11.42,0,0,1,4.94-2.5l-.77-3.07A1.82,1.82,0,0,1,285.8,93a1.77,1.77,0,0,1,1.8-1.73,1.82,1.82,0,0,1,1.71,1.87,1.7,1.7,0,0,1-.68,1.34h0l.8,3.2h0a10.86,10.86,0,0,1,3.42.15h0a11.74,11.74,0,0,1,2.94,1l.82-1.79a1.83,1.83,0,0,1,0-2.38,1.75,1.75,0,0,1,2.48-.15,1.86,1.86,0,0,1,.18,2.55,1.72,1.72,0,0,1-1.38.61l-.83,1.86a12.07,12.07,0,0,1,4,4.22l1.37-.71a1.75,1.75,0,0,1,1.39-1.89,1.81,1.81,0,0,1,.69,3.56,1.71,1.71,0,0,1-1.45-.4l-1.35.71a12.94,12.94,0,0,1,.78,2.54,12.12,12.12,0,0,1,.22,2l4.42.18a1.7,1.7,0,0,1,2.12-.91A1.83,1.83,0,0,1,310.37,111Z"/><path class="cls-33" d="M261.05,79.5a1.07,1.07,0,0,1-1.37.7,1.08,1.08,0,0,1-.67-.65l-2.72-.11A7.42,7.42,0,0,1,255,83.06l1.63,1.24a1.06,1.06,0,0,1,1.4.29,1.12,1.12,0,0,1-.1,1.47s0,0,0,0a.17.17,0,0,1-.06.06,1.06,1.06,0,0,1-1.51-.22,1.17,1.17,0,0,1-.2-.93l-1.65-1.25a7,7,0,0,1-2.41,1.84l-.07,0,.83,2.09a1.11,1.11,0,1,1-1.11,1.2A1.13,1.13,0,0,1,252,88l-.82-2.09c-.27.08-.53.15-.8.21a7,7,0,0,1-3.2-.11l-.48,1.25a1.15,1.15,0,0,1,.1,1.47,1.06,1.06,0,0,1-1.52.18,1.12,1.12,0,0,1-.2-1.55,1,1,0,0,1,.82-.42l.46-1.2a7.21,7.21,0,0,1-3-2.18l-1.1,1.24a1.11,1.11,0,0,1-.42,1.39,1.07,1.07,0,0,1-1.49-.36,1.13,1.13,0,0,1,.36-1.53,1,1,0,0,1,.91-.1l1.21-1.36a7.79,7.79,0,0,1-1.1-2.72v-.08l-2.29.44a1.07,1.07,0,0,1-1.15.85,1.12,1.12,0,0,1-1-1.22,1.08,1.08,0,0,1,1.17-1,1,1,0,0,1,.79.49l2.35-.45a7.2,7.2,0,0,1,.16-2.18l-1.41-.34A1.06,1.06,0,0,1,239,77a1.14,1.14,0,0,1-.43-1.52,1.07,1.07,0,0,1,1.47-.42,1.1,1.1,0,0,1,.54.77l1.45.35a7.36,7.36,0,0,1,1.56-2.61l-.7-.52a1.07,1.07,0,0,1-1.4-.29,1.12,1.12,0,0,1,.18-1.55,1.07,1.07,0,0,1,1.52.2,1.14,1.14,0,0,1,.21.92h0l.83.62a6.93,6.93,0,0,1,3-1.55l-.48-1.89a1.11,1.11,0,0,1-.91-1.14A1.09,1.09,0,0,1,247,67.29a1.12,1.12,0,0,1,1.05,1.15,1.08,1.08,0,0,1-.41.83h0l.49,2h0a6.75,6.75,0,0,1,2.11.09h0a7.15,7.15,0,0,1,1.81.61l.5-1.1a1.14,1.14,0,0,1,0-1.47,1.08,1.08,0,0,1,1.53-.09,1.15,1.15,0,0,1,.11,1.57,1.07,1.07,0,0,1-.85.38l-.52,1.14A7.4,7.4,0,0,1,255.29,75l.84-.44a1.08,1.08,0,0,1,.86-1.16,1.12,1.12,0,1,1-.47,2l-.83.43a8,8,0,0,1,.48,1.57,8.64,8.64,0,0,1,.14,1.21l2.72.11a1.06,1.06,0,0,1,1.31-.56A1.14,1.14,0,0,1,261.05,79.5Z"/><path class="cls-33" d="M207.31,56.4a1.1,1.1,0,0,1-1.41.72,1.15,1.15,0,0,1-.7-.68l-2.82-.11a7.81,7.81,0,0,1-1.3,3.75l1.68,1.28a1.13,1.13,0,0,1,1.46.3,1.17,1.17,0,0,1-.11,1.52s0,0,0,0l-.07.06a1.11,1.11,0,0,1-1.57-.22,1.17,1.17,0,0,1-.2-1l-1.71-1.29a7.35,7.35,0,0,1-2.5,1.91l-.07,0,.85,2.17a1.14,1.14,0,1,1-1.14,1.25,1.14,1.14,0,0,1,.31-.93l-.85-2.16a8.41,8.41,0,0,1-.83.21,7.36,7.36,0,0,1-3.31-.11l-.5,1.29a1.21,1.21,0,0,1,.1,1.53,1.1,1.1,0,0,1-1.57.19,1.16,1.16,0,0,1-.21-1.61,1,1,0,0,1,.85-.44l.47-1.24a7.62,7.62,0,0,1-3.1-2.26l-1.14,1.29a1.14,1.14,0,0,1-.44,1.44,1.12,1.12,0,0,1-1.54-.38,1.18,1.18,0,0,1,.37-1.59,1.07,1.07,0,0,1,.95-.09l1.25-1.42a8,8,0,0,1-1.14-2.81V57l-2.37.45a1.12,1.12,0,0,1-1.2.88,1.15,1.15,0,0,1-1-1.26A1.12,1.12,0,0,1,184,56a1.06,1.06,0,0,1,.82.5l2.43-.46a7.74,7.74,0,0,1,.17-2.26l-1.46-.34a1.11,1.11,0,0,1-1.44.31,1.18,1.18,0,0,1-.44-1.57,1.1,1.1,0,0,1,1.52-.44,1.16,1.16,0,0,1,.56.8l1.5.36a7.86,7.86,0,0,1,1.61-2.7l-.72-.54a1.12,1.12,0,0,1-1.46-.3,1.17,1.17,0,0,1,.2-1.61,1.1,1.1,0,0,1,1.57.21,1.18,1.18,0,0,1,.22.95h0l.85.64a7.35,7.35,0,0,1,3.16-1.6l-.5-2a1.15,1.15,0,0,1-.94-1.18,1.11,1.11,0,0,1,1.14-1.1,1.15,1.15,0,0,1,.67,2h0l.51,2.05h0a7.29,7.29,0,0,1,2.19.1h0a7.2,7.2,0,0,1,1.88.64l.52-1.15a1.17,1.17,0,0,1,0-1.52,1.1,1.1,0,0,1,1.58-.09,1.17,1.17,0,0,1,.11,1.62,1.11,1.11,0,0,1-.88.4L198.81,49a7.84,7.84,0,0,1,2.54,2.7l.87-.46a1.11,1.11,0,0,1,.89-1.2,1.16,1.16,0,0,1,.44,2.27,1.11,1.11,0,0,1-.93-.25l-.86.45a8.48,8.48,0,0,1,.5,1.62,8,8,0,0,1,.14,1.26l2.82.12a1.09,1.09,0,0,1,1.36-.59A1.19,1.19,0,0,1,207.31,56.4Z"/><path class="cls-33" d="M147.76,71.89a1.12,1.12,0,0,1-1.45.74,1.13,1.13,0,0,1-.71-.69l-2.89-.12a8,8,0,0,1-1.34,3.85L143.1,77a1.14,1.14,0,0,1,1.49.31,1.19,1.19,0,0,1-.11,1.56s0,0,0,0a.19.19,0,0,1-.07.06,1.13,1.13,0,0,1-1.61-.22,1.27,1.27,0,0,1-.21-1l-1.75-1.33a7.55,7.55,0,0,1-2.55,2l-.08,0,.87,2.21a1.18,1.18,0,0,1,.1,2.35,1.18,1.18,0,0,1-1.27-1.07,1.19,1.19,0,0,1,.32-.94l-.87-2.22c-.28.08-.56.16-.86.22a7.58,7.58,0,0,1-3.39-.12l-.5,1.33a1.24,1.24,0,0,1,.1,1.56,1.13,1.13,0,0,1-1.62.19,1.19,1.19,0,0,1-.2-1.65,1.06,1.06,0,0,1,.87-.44l.48-1.27A7.79,7.79,0,0,1,129,76.23l-1.16,1.32a1.19,1.19,0,0,1-.46,1.48,1.14,1.14,0,0,1-1.57-.39,1.2,1.2,0,0,1,.37-1.63,1.08,1.08,0,0,1,1-.1l1.29-1.44a8.11,8.11,0,0,1-1.17-2.89V72.5l-2.43.46a1.14,1.14,0,0,1-1.22.9,1.17,1.17,0,0,1-1-1.29,1.14,1.14,0,0,1,1.24-1,1.12,1.12,0,0,1,.84.51l2.49-.47a7.72,7.72,0,0,1,.17-2.31l-1.5-.36a1.11,1.11,0,0,1-1.47.32,1.21,1.21,0,0,1-.46-1.61,1.14,1.14,0,0,1,1.56-.45,1.24,1.24,0,0,1,.58.82l1.54.37a8,8,0,0,1,1.65-2.77L128.5,65a1.13,1.13,0,0,1-1.49-.3,1.2,1.2,0,0,1,.2-1.66,1.13,1.13,0,0,1,1.61.22,1.25,1.25,0,0,1,.22,1h0l.87.66a7.61,7.61,0,0,1,3.24-1.64l-.51-2a1.19,1.19,0,0,1-1-1.22,1.15,1.15,0,0,1,1.18-1.13A1.18,1.18,0,0,1,134,60.15a1.1,1.1,0,0,1-.44.88h0l.53,2.1h0a7.28,7.28,0,0,1,2.24.1h0a7.5,7.5,0,0,1,1.92.65l.54-1.17a1.21,1.21,0,0,1,0-1.56,1.13,1.13,0,0,1,1.62-.1,1.22,1.22,0,0,1,.12,1.67,1.13,1.13,0,0,1-.9.4l-.55,1.22a7.83,7.83,0,0,1,2.6,2.76l.9-.47a1.13,1.13,0,0,1,.9-1.23,1.19,1.19,0,0,1,.46,2.33,1.1,1.1,0,0,1-.95-.26l-.89.46a8.21,8.21,0,0,1,.51,1.66,7.3,7.3,0,0,1,.15,1.29l2.89.12a1.12,1.12,0,0,1,1.39-.6A1.21,1.21,0,0,1,147.76,71.89Z"/><path class="cls-33" d="M131.48,38.57a1.11,1.11,0,0,1-1.42.73,1.13,1.13,0,0,1-.69-.68l-2.82-.12a7.84,7.84,0,0,1-1.3,3.76l1.68,1.28a1.11,1.11,0,0,1,1.46.3,1.18,1.18,0,0,1-.11,1.52s0,0,0,0a.12.12,0,0,1-.06.06,1.1,1.1,0,0,1-1.57-.22,1.16,1.16,0,0,1-.2-1L124.7,43a7.35,7.35,0,0,1-2.5,1.91l-.07,0,.85,2.16a1.15,1.15,0,0,1,1.09,1,1.12,1.12,0,1,1-2.23.21,1.11,1.11,0,0,1,.31-.92l-.85-2.16c-.28.08-.55.15-.84.21a7.33,7.33,0,0,1-3.3-.11l-.5,1.29a1.19,1.19,0,0,1,.1,1.52,1.1,1.1,0,0,1-1.58.19,1.16,1.16,0,0,1-.2-1.61,1.05,1.05,0,0,1,.85-.43l.47-1.24a7.64,7.64,0,0,1-3.1-2.27l-1.14,1.29a1.14,1.14,0,0,1-.44,1.44,1.1,1.1,0,0,1-1.54-.38,1.16,1.16,0,0,1,.37-1.58,1,1,0,0,1,1-.1l1.25-1.41a8.09,8.09,0,0,1-1.14-2.82v-.08l-2.37.45a1.12,1.12,0,0,1-1.2.88,1.15,1.15,0,0,1-1-1.26,1.13,1.13,0,0,1,1.21-1,1.11,1.11,0,0,1,.82.51l2.43-.46a7.74,7.74,0,0,1,.17-2.26l-1.46-.35a1.1,1.1,0,0,1-1.44.32,1.19,1.19,0,0,1-.45-1.57,1.12,1.12,0,0,1,1.53-.45,1.2,1.2,0,0,1,.56.8l1.5.37a7.75,7.75,0,0,1,1.61-2.71l-.72-.54a1.1,1.1,0,0,1-1.46-.29,1.19,1.19,0,0,1,.2-1.62,1.1,1.1,0,0,1,1.57.22,1.21,1.21,0,0,1,.22.95h0l.85.65a7.24,7.24,0,0,1,3.16-1.6l-.5-2a1.15,1.15,0,0,1-.94-1.18,1.12,1.12,0,0,1,1.14-1.11A1.15,1.15,0,0,1,118,27.11a1.08,1.08,0,0,1-.43.86h0l.51,2h0a7,7,0,0,1,2.19.1h0a7.33,7.33,0,0,1,1.88.64l.52-1.15a1.15,1.15,0,0,1,0-1.51,1.1,1.1,0,0,1,1.58-.1,1.18,1.18,0,0,1,.11,1.63,1.1,1.1,0,0,1-.88.39L123,31.2a7.81,7.81,0,0,1,2.54,2.69l.87-.45a1.11,1.11,0,0,1,.89-1.21,1.16,1.16,0,0,1,.44,2.28,1.1,1.1,0,0,1-.93-.26l-.86.45a8.56,8.56,0,0,1,.49,1.63,6.87,6.87,0,0,1,.15,1.26l2.82.11a1.1,1.1,0,0,1,1.36-.58A1.17,1.17,0,0,1,131.48,38.57Z"/><path class="cls-33" d="M71.73,79.7a1.3,1.3,0,0,1-1.66.85,1.38,1.38,0,0,1-.82-.8l-3.31-.13A9.08,9.08,0,0,1,64.41,84l2,1.51a1.29,1.29,0,0,1,1.71.35A1.35,1.35,0,0,1,68,87.66s0,0,0,0a.23.23,0,0,1-.07.07A1.29,1.29,0,0,1,66,87.51a1.37,1.37,0,0,1-.24-1.13l-2-1.52a8.62,8.62,0,0,1-2.93,2.24l-.09,0,1,2.54a1.35,1.35,0,0,1,.1,2.69,1.35,1.35,0,0,1-1.45-1.22,1.33,1.33,0,0,1,.37-1.08l-1-2.54c-.32.09-.64.18-1,.25a8.58,8.58,0,0,1-3.88-.13l-.58,1.51A1.42,1.42,0,0,1,54.45,91a1.28,1.28,0,0,1-1.84.22,1.35,1.35,0,0,1-.24-1.89,1.27,1.27,0,0,1,1-.51l.56-1.45a8.9,8.9,0,0,1-3.64-2.66l-1.34,1.52a1.35,1.35,0,0,1-.52,1.69,1.3,1.3,0,0,1-1.8-.45,1.37,1.37,0,0,1,.43-1.86,1.22,1.22,0,0,1,1.11-.11l1.47-1.66a9.4,9.4,0,0,1-1.33-3.31l0-.09-2.78.53a1.31,1.31,0,0,1-1.4,1,1.34,1.34,0,0,1-1.19-1.48,1.31,1.31,0,0,1,1.42-1.21,1.33,1.33,0,0,1,1,.6l2.85-.54a9.42,9.42,0,0,1,.2-2.66l-1.72-.4a1.28,1.28,0,0,1-1.68.37,1.39,1.39,0,0,1-.52-1.85,1.29,1.29,0,0,1,1.78-.52,1.37,1.37,0,0,1,.66.94l1.76.43a9.3,9.3,0,0,1,1.89-3.18l-.85-.63a1.29,1.29,0,0,1-1.7-.34,1.38,1.38,0,0,1,.23-1.9,1.28,1.28,0,0,1,1.84.26A1.35,1.35,0,0,1,50.28,71h0l1,.75A8.39,8.39,0,0,1,55,69.84l-.58-2.31a1.35,1.35,0,0,1-1.11-1.38,1.32,1.32,0,0,1,1.35-1.3,1.36,1.36,0,0,1,1.28,1.4,1.33,1.33,0,0,1-.51,1h0l.61,2.4h0a8.18,8.18,0,0,1,2.57.11h0a8.67,8.67,0,0,1,2.2.75l.61-1.35a1.36,1.36,0,0,1,0-1.78,1.31,1.31,0,0,1,1.86-.11,1.39,1.39,0,0,1,.13,1.91,1.29,1.29,0,0,1-1,.46L61.76,71a9.1,9.1,0,0,1,3,3.16l1-.53a1.31,1.31,0,0,1,1-1.41,1.36,1.36,0,0,1,.52,2.66,1.28,1.28,0,0,1-1.09-.29l-1,.53a9.55,9.55,0,0,1,.58,1.9A11,11,0,0,1,66,78.54l3.31.13A1.28,1.28,0,0,1,70.87,78,1.38,1.38,0,0,1,71.73,79.7Z"/><path class="cls-33" d="M103.68,105.76a1.24,1.24,0,0,1-1.58.81,1.28,1.28,0,0,1-.78-.76l-3.16-.13a8.75,8.75,0,0,1-1.46,4.21l1.89,1.43a1.23,1.23,0,0,1,1.63.34,1.3,1.3,0,0,1-.12,1.7l0,0a.46.46,0,0,1-.07.07,1.24,1.24,0,0,1-1.76-.25,1.33,1.33,0,0,1-.23-1.08l-1.92-1.45a8.3,8.3,0,0,1-2.79,2.14l-.09,0,1,2.42a1.29,1.29,0,0,1,.1,2.56,1.27,1.27,0,0,1-1.38-1.16,1.26,1.26,0,0,1,.35-1l-1-2.43a9,9,0,0,1-.93.24,8.27,8.27,0,0,1-3.71-.12l-.55,1.45a1.34,1.34,0,0,1,.11,1.7,1.23,1.23,0,0,1-1.76.21,1.29,1.29,0,0,1-.23-1.8,1.2,1.2,0,0,1,1-.49l.53-1.39a8.56,8.56,0,0,1-3.48-2.53l-1.27,1.44a1.3,1.3,0,0,1-.5,1.62,1.24,1.24,0,0,1-1.72-.43,1.31,1.31,0,0,1,.41-1.77,1.15,1.15,0,0,1,1.06-.11l1.4-1.59a9,9,0,0,1-1.27-3.15v-.09l-2.66.5a1.24,1.24,0,0,1-1.34,1,1.28,1.28,0,0,1-1.13-1.41,1.25,1.25,0,0,1,1.36-1.16,1.26,1.26,0,0,1,.92.57l2.71-.51a8.59,8.59,0,0,1,.2-2.54l-1.64-.39a1.25,1.25,0,0,1-1.62.36,1.32,1.32,0,0,1-.49-1.76,1.24,1.24,0,0,1,1.7-.5,1.32,1.32,0,0,1,.63.9l1.69.41a8.58,8.58,0,0,1,1.8-3l-.81-.6A1.24,1.24,0,0,1,81,97.91a1.32,1.32,0,0,1,.22-1.81,1.24,1.24,0,0,1,1.76.24,1.34,1.34,0,0,1,.24,1.07h0l1,.73a8.19,8.19,0,0,1,3.53-1.8l-.55-2.19a1.3,1.3,0,0,1-1.06-1.33,1.25,1.25,0,0,1,1.28-1.23,1.3,1.3,0,0,1,1.23,1.33,1.26,1.26,0,0,1-.49,1h0l.57,2.29h0a7.65,7.65,0,0,1,2.44.1h0a8.35,8.35,0,0,1,2.11.72l.58-1.29a1.3,1.3,0,0,1,0-1.7,1.25,1.25,0,0,1,1.78-.11,1.34,1.34,0,0,1,.12,1.83,1.28,1.28,0,0,1-1,.44l-.6,1.32a8.75,8.75,0,0,1,2.84,3l1-.5a1.24,1.24,0,0,1,1-1.35,1.3,1.3,0,0,1,.5,2.54,1.2,1.2,0,0,1-1-.28l-1,.51a9.32,9.32,0,0,1,.56,1.81,8.7,8.7,0,0,1,.16,1.41l3.16.13a1.23,1.23,0,0,1,1.52-.65A1.32,1.32,0,0,1,103.68,105.76Z"/></g></g></svg>